# xmcd
#
# Track frame offsets: 
#        150
#        17087
#        33497
#        49895
#        71503
#        85647
#        104413
#        121674
#        141861
#        162483
#        180851
#        198846
#        227796
#
# Disc length: 3099 seconds
#
# Revision: 3
# Processed by: cddbd v1.5.2PL0 Copyright (c) Steve Scherf et al.
# Submitted via: ExactAudioCopy v0.99pb5
#
DISCID=a30c190d
DTITLE=Dixie Chicks - Playlist: The Very Best of Dixie Chicks
DYEAR=2010
DGENRE=Country
TTITLE0=Wide Open Spaces
TTITLE1=You Were Mine
TTITLE2=Sin Wagon
TTITLE3=Cowboy Take Me Away
TTITLE4=Let Him Fly
TTITLE5=Long Time Gone
TTITLE6=Landslide
TTITLE7=Truth No. 2
TTITLE8=The Long Way Around
TTITLE9=Easy Silence
TTITLE10=Not Ready to Make Nice
TTITLE11=Lubbock or Leave It
TTITLE12=Data Track
EXTD=
EXTT0=
EXTT1=
EXTT2=
EXTT3=
EXTT4=
EXTT5=
EXTT6=
EXTT7=
EXTT8=
EXTT9=
EXTT10=
EXTT11=
EXTT12=
PLAYORDER=
